<?xml version="1.0" encoding="UTF-8"?>
<!-- Created with Inkscape (http://www.inkscape.org/) -->
<svg width="335.59" height="275.5" version="1.1" viewBox="0 0 335.59 275.5" xml:space="preserve" xmlns="http://www.w3.org/2000/svg" xmlns:cc="http://creativecommons.org/ns#" xmlns:dc="http://purl.org/dc/elements/1.1/" xmlns:rdf="http://www.w3.org/1999/02/22-rdf-syntax-ns#"><metadata><rdf:RDF><cc:Work rdf:about=""><dc:format>image/svg+xml</dc:format><dc:type rdf:resource="http://purl.org/dc/dcmitype/StillImage"/><dc:title/></cc:Work></rdf:RDF></metadata><g transform="matrix(1.3333 0 0 1.3333 0 8.8874e-6)"><g fill="#ff4545"><path d="m164.78 57.578-1.246-1.445c-26.098-30.094-50.223-27.813-51.242-27.711-0.012 0-0.024 0.012-0.035 0.012-5.574 0.117-10.078 4.668-10.078 10.269 0 1.434 0.3 2.852 0.871 4.156 0 0-18.485 48.289-18.457 48.36 4e-3 0.015 0.039 5.535 0.039 5.535 0 0.508 0.179 0.988 0.59 1.285 0.277 0.195 0.535 0.301 0.859 0.301 0.168 0 0.348-0.031 0.508-0.082l31.801-10.559c0.593 1.906 1.609 3.649 3.847 3.649 1.317 0 2.379-0.407 3.16-1.207 1.239-1.27 1.426-3.164 1.422-5.243l32.789-10.89c2.629-0.746 7.582-3.797 7.481-9.988-0.035-2.356-0.821-4.563-2.309-6.442zm-52.312-26c0.031 0 0.054-0.015 0.086-0.015 0.027 0 0.054 0.011 0.086 7e-3 0.218-0.027 21.511-1.91 45.132 22.946-3.23-0.149-6.062 0.898-8.097 3.121-1.328 1.453-2.18 3.293-2.5 5.218-11.262-13.343-24.836-20.382-41.282-21.542-0.332-0.825-0.55-1.696-0.55-2.61 0-3.926 3.199-7.125 7.125-7.125zm-24.668 60.176 27.402-9.859c0.566-0.231 1.016-0.286 1.234-0.18 0.536 0.281 0.911 1.648 1.2 2.914l-29.836 9.934zm20.929-12.152c-3.98 0-7.339-2.18-7.339-4.766 0-2.59 3.363-4.77 7.339-4.77 3.977 0 7.336 2.18 7.336 4.77 0 2.586-3.359 4.766-7.336 4.766zm14.399 8.324c-0.063 0.066-0.242 0.25-0.891 0.25-0.59 0-1.054-2.153-1.332-3.438-0.508-2.359-1.039-4.797-2.996-5.828-0.051-0.027-0.113-0.039-0.168-0.062 0.922-1.184 1.492-2.543 1.492-4.012 0-4.449-4.613-7.938-10.5-7.938-5.89 0-10.508 3.489-10.508 7.938 0 3.426 2.75 6.262 6.7 7.391l-16.094 5.789 12.562-32.184v4e-3c0 4.453 4.614 7.937 10.504 7.937 5.891 0 10.504-3.488 10.504-7.937s-4.613-7.934-10.504-7.934c-3.73 0-6.941 1.403-8.797 3.559l2.719-6.969c16.371 1.196 29.731 8.676 40.758 22.754l-19.238 6.922c-4e-3 0-8e-3 4e-3 -0.016 8e-3 -4e-3 4e-3 -0.015 0-0.019 4e-3 -3.883 1.504-3.766 5.804-3.672 9.258 0.043 1.726 0.097 3.871-0.504 4.488zm-18.574-32.09c0-2.582 3.359-4.77 7.339-4.77 3.977 0 7.336 2.184 7.336 4.77s-3.359 4.769-7.336 4.769c-3.98 0-7.339-2.183-7.339-4.769zm54.121 15.141-31.895 11.031c0.024-2.324 0.313-3.988 1.66-3.988h4e-3l20.59-7.852c0.117 0.027 0.231-0.141 0.352-0.141 0.277 0 0.554-0.179 0.808-0.332 0.699-0.418 0.969-1.355 0.621-2.09-1.179-2.511-0.691-5.445 1.196-7.511 2.093-2.285 5.394-4.239 9.316-1.071h0.012l1 0.864c1.008 1.273 1.554 2.672 1.582 4.32 0.086 5.281-4.973 6.688-5.246 6.77z"/><path d="m57.32 113.1v7.16h-20.457v8.301h18.774v6.621h-18.774v9.496h20.891v7.16h-29.406v-38.738zm31.645 0 14.488 38.738h-8.844l-2.929-8.625h-14.489l-3.039 8.625h-8.625l14.703-38.738zm-4.504 9.547-5.047 14.214h10.039l-4.883-14.214zm53.187-9.547v7.16h-11.613v31.578h-8.515v-31.578h-11.614v-7.16zm40.219 0v6.726l-20.781 24.852h21.32v7.16h-32.66v-6.727l20.781-24.851h-19.156v-7.16zm30.992 0 14.489 38.738h-8.844l-2.93-8.625h-14.488l-3.039 8.625h-8.625l14.703-38.738zm-4.504 9.547-5.042 14.214h10.035l-4.883-14.214z"/><path d="m53.961 174.8c0 0.695-0.207 1.312-0.625 1.851-0.41 0.512-0.973 0.911-1.688 1.196-0.718 0.285-1.527 0.429-2.429 0.429-0.824 0-1.629-0.195-2.406-0.578-0.778-0.383-1.434-0.918-1.965-1.601l1.109-1.039c0.922 1.109 2.008 1.664 3.262 1.664 0.551 0 1.054-0.067 1.508-0.2 0.503-0.152 0.894-0.363 1.168-0.64 0.316-0.305 0.472-0.664 0.472-1.082 0-0.504-0.156-0.883-0.472-1.141-0.266-0.215-0.661-0.359-1.18-0.426-0.305-0.039-0.805-0.058-1.496-0.058-1.274 0-2.242-0.231-2.914-0.696-0.668-0.464-1.004-1.148-1.004-2.05 0-0.571 0.172-1.114 0.508-1.625 0.336-0.512 0.8-0.922 1.386-1.223 0.61-0.324 1.282-0.484 2.024-0.484 0.836 0 1.59 0.129 2.265 0.382 0.719 0.278 1.391 0.708 2.008 1.297l-0.969 1.141c-0.578-0.469-1.105-0.793-1.582-0.977-0.472-0.187-1.046-0.277-1.722-0.277-0.391 0-0.754 0.078-1.09 0.242-0.336 0.16-0.606 0.375-0.805 0.649-0.199 0.269-0.297 0.554-0.297 0.859 0 0.816 0.754 1.227 2.262 1.227 1.207 0 2.16 0.121 2.863 0.371 0.664 0.234 1.141 0.597 1.426 1.082 0.254 0.426 0.383 0.996 0.383 1.707zm6.906 3.476c-0.996 0-1.851-0.175-2.57-0.519-0.715-0.348-1.262-0.848-1.637-1.504s-0.562-1.438-0.562-2.352v-6.492h1.539v6.492c0 0.914 0.277 1.61 0.84 2.094 0.558 0.484 1.355 0.727 2.39 0.727s1.832-0.243 2.395-0.727c0.558-0.484 0.84-1.18 0.84-2.094v-6.492h1.539v6.492c0 0.914-0.188 1.696-0.563 2.352s-0.922 1.156-1.64 1.504c-0.715 0.344-1.571 0.519-2.571 0.519zm11.082-9.742-0.586-1.308h1.711l5.114 10.808h-1.739l-0.699-1.555h-3.23c-0.61 0-1.157 0.059-1.641 0.172-0.426 0.106-0.781 0.243-1.066 0.414-0.258 0.153-0.426 0.309-0.512 0.469l-0.274 0.5h-1.679zm1.137 6.379h1.969l-2.325-4.484-2.347 5.082c0.207-0.18 0.527-0.321 0.953-0.426 0.484-0.113 1.066-0.172 1.75-0.172zm14.527-2.961h1.883c1.043 0 1.567-0.504 1.567-1.512 0-0.519-0.133-0.898-0.395-1.128-0.258-0.235-0.652-0.352-1.172-0.352h-3.902v3.418c0.293-0.168 0.625-0.289 0.996-0.356 0.273-0.046 0.617-0.07 1.023-0.07zm-2.019 6.082h-1.555v-10.625h5.457c0.625 0 1.172 0.121 1.637 0.363 0.465 0.243 0.824 0.59 1.082 1.047s0.383 0.993 0.383 1.618c0 0.621-0.125 1.164-0.383 1.628-0.258 0.465-0.621 0.825-1.09 1.075-0.469 0.254-1.012 0.379-1.629 0.379h-1.883c-0.816 0-1.488 0.14-2.019 0.425zm10.808 0h-1.523v-10.625h1.523zm10.922 0h-8.644v-1.566l5.98-7.492h-5.652v-1.567h7.789v1.508l-6.18 7.562h6.707zm10.071 0h-8.645v-1.566l5.98-7.492h-5.652v-1.567h7.789v1.508l-6.179 7.562h6.707zm5.597-9.5-0.586-1.308h1.711l5.113 10.808h-1.738l-0.699-1.555h-3.23c-0.61 0-1.157 0.059-1.641 0.172-0.426 0.106-0.781 0.243-1.067 0.414-0.257 0.153-0.429 0.309-0.511 0.469l-0.274 0.5h-1.679zm1.137 6.379h1.965l-2.321-4.484-2.347 5.082c0.207-0.18 0.527-0.321 0.953-0.426 0.484-0.113 1.066-0.172 1.75-0.172zm12.504-1.137v2.703h6.555v1.555h-8.106v-10.625h7.477v1.567h-5.926v3.218c0.297-0.172 0.625-0.285 0.984-0.343 0.266-0.047 0.61-0.071 1.028-0.071h2.32v1.582h-2.32c-0.391 0-0.735 0.024-1.028 0.071-0.359 0.066-0.687 0.179-0.984 0.343zm18.117-3.05-3.633 4.343-3.601-4.343v7.308h-1.524v-9.129l-1.238-1.496h2.008l4.343 5.211 4.399-5.211h2.008l-1.239 1.496v9.129h-1.523zm17.93-1.95-0.996 1.168c-0.391-0.398-0.856-0.711-1.395-0.941-0.543-0.227-1.113-0.34-1.711-0.34-0.777 0-1.488 0.176-2.129 0.527-0.64 0.352-1.14 0.829-1.504 1.438-0.367 0.637-0.554 1.344-0.554 2.121 0 0.742 0.199 1.426 0.597 2.051 0.383 0.59 0.891 1.058 1.532 1.402 0.64 0.348 1.332 0.52 2.074 0.52 0.683 0 1.32-0.145 1.906-0.442 0.59-0.293 1.078-0.703 1.469-1.222l0.953 1.296c-0.539 0.606-1.188 1.079-1.942 1.415-0.757 0.339-1.554 0.507-2.402 0.507-1.055 0-2.023-0.257-2.906-0.769-0.863-0.496-1.543-1.172-2.035-2.039-0.512-0.883-0.77-1.848-0.77-2.903 0-1.015 0.27-1.953 0.813-2.808 0.511-0.817 1.207-1.461 2.086-1.942 0.879-0.48 1.82-0.718 2.828-0.718 0.789 0 1.539 0.152 2.25 0.453 0.691 0.285 1.304 0.695 1.836 1.226zm5.84-0.242-0.582-1.308h1.707l5.113 10.808h-1.738l-0.7-1.555h-3.23c-0.61 0-1.152 0.059-1.637 0.172-0.43 0.106-0.785 0.243-1.07 0.414-0.254 0.153-0.426 0.309-0.512 0.469l-0.269 0.5h-1.684zm1.14 6.379h1.965l-2.32-4.484-2.352 5.082c0.207-0.18 0.527-0.321 0.953-0.426 0.485-0.113 1.071-0.172 1.754-0.172zm15.352-0.113c0 0.695-0.211 1.312-0.625 1.851-0.41 0.512-0.973 0.911-1.688 1.196-0.719 0.285-1.527 0.429-2.429 0.429-0.829 0-1.629-0.195-2.407-0.578-0.781-0.383-1.433-0.918-1.965-1.601l1.11-1.039c0.922 1.109 2.008 1.664 3.262 1.664 0.55 0 1.054-0.067 1.507-0.2 0.504-0.152 0.895-0.363 1.168-0.64 0.317-0.305 0.473-0.664 0.473-1.082 0-0.504-0.156-0.883-0.473-1.141-0.265-0.215-0.66-0.359-1.179-0.426-0.305-0.039-0.805-0.058-1.496-0.058-1.274 0-2.243-0.231-2.915-0.696-0.667-0.464-1.003-1.148-1.003-2.05 0-0.571 0.168-1.114 0.507-1.625 0.336-0.512 0.797-0.922 1.387-1.223 0.609-0.324 1.281-0.484 2.024-0.484 0.835 0 1.589 0.129 2.265 0.382 0.719 0.278 1.391 0.708 2.008 1.297l-0.969 1.141c-0.582-0.469-1.105-0.793-1.582-0.977-0.472-0.187-1.051-0.277-1.722-0.277-0.391 0-0.754 0.078-1.09 0.242-0.336 0.16-0.606 0.375-0.805 0.649-0.199 0.269-0.301 0.554-0.301 0.859 0 0.816 0.758 1.227 2.266 1.227 1.207 0 2.16 0.121 2.863 0.371 0.664 0.234 1.141 0.597 1.426 1.082 0.254 0.426 0.383 0.996 0.383 1.707zm5.597-6.266-0.586-1.308h1.711l5.114 10.808h-1.739l-0.699-1.555h-3.23c-0.61 0-1.157 0.059-1.641 0.172-0.426 0.106-0.781 0.243-1.066 0.414-0.258 0.153-0.426 0.309-0.512 0.469l-0.273 0.5h-1.68zm1.137 6.379h1.969l-2.324-4.484-2.348 5.082c0.207-0.18 0.527-0.321 0.953-0.426 0.484-0.113 1.067-0.172 1.75-0.172z"/></g></g></svg>
